<svg xmlns="http://www.w3.org/2000/svg" width="1021" height="881" fill="none" viewBox="0 0 1021 881">
  <path fill="url(#paint0_linear)" d="M794.236 533.705c5.956 97.262-120.055 140.465-175.029 60.009l-15.204-22.252c-32.695-47.85-98.326-59.491-145.483-25.804l-3.853 2.753c-45.935 32.815-109.389 24.734-145.634-18.546l-51.945-62.029c-13.182-15.741-12.26-38.918 2.131-53.561 15.302-15.571 15.241-40.552-.137-56.048l-2.056-2.072a42.822 42.822 0 00-16.109-10.207l-3.604-1.276a59.582 59.582 0 00-16.668-3.33l-13.955-.755a82.48 82.48 0 01-57.986-28.473l-8.01-9.283a56.26 56.26 0 01-12.919-45.894l.857-5.208c4.659-28.307 31.7-47.236 59.892-41.923 24.392 4.596 48.56-8.998 57.299-32.23l3.314-8.809a62.71 62.71 0 003.99-22.01c0-50.5 54.534-83.025 98.872-58.851 13.677 7.457 24.429 19.508 30.213 33.972l1.892 4.732c16.348 40.88 62.33 61.246 103.59 45.881l33.605-12.514c44.794-16.681 95.226-4.645 127.659 30.466l45.017 48.735a109.332 109.332 0 0099.041 33.53l32.038-5.571c55.5-9.65 104.808 36.499 98.849 92.515l-1.185 11.144c-3.612 33.959-30.817 60.576-64.847 63.444-38.566 3.252-67.479 36.702-65.113 75.333l1.478 24.132z"/>
  <path fill="url(#paint1_linear)" d="M154.295 398.342c0-23.109 28.601-33.921 43.889-16.592l13.278 12.649c8.611 8.204 9.491 21.641 2.023 30.898a22.855 22.855 0 00-5.032 13.086l-.297 5.352c-1.231 22.21-25.948 34.85-44.675 22.848a29.047 29.047 0 01-12.609-31.082l2.574-10.988a32.19 32.19 0 00.849-7.344v-18.827z"/>
  <path fill="#A37E5B" d="M570.449 493.906l16.834-3.644 2.937 13.568-17.839 3.861-1.932-13.785z"/>
  <path fill="url(#paint2_linear)" d="M551.449 431.136h29.049l8.997 63.496-19.537 2.571-18.509-66.067z"/>
  <path fill="url(#paint3_linear)" d="M623.943 311.856h44.216v47.301h-44.216z"/>
  <rect width="94.602" height="3.085" x="598.751" y="356.072" fill="#fff" rx="1.542"/>
  <rect width="165.553" height="98.201" x="563.275" y="223.424" fill="#fff" rx="24"/>
  <rect width="156.298" height="86.889" x="567.902" y="227.023" fill="#113F67" rx="17"/>
  <rect width="2.057" height="8.74" x="681.013" y="230.622" fill="#fff" rx="1.028"/>
  <rect width="1.542" height="7.198" x="678.956" y="232.165" fill="#fff" rx=".771"/>
  <rect width="2.057" height="8.226" x="676.386" y="231.136" fill="#fff" rx="1.028"/>
  <rect width="17.995" height="22.108" x="577.671" y="247.075" fill="#F3B630" rx="4"/>
  <rect width="17.995" height="22.108" x="577.671" y="277.923" fill="#D45134" rx="4"/>
  <rect width="17.995" height="22.108" x="601.321" y="247.075" fill="#92C5DB" rx="4"/>
  <rect width="17.995" height="22.108" x="601.321" y="277.923" fill="#6D933C" rx="4"/>
  <rect width="17.995" height="22.108" x="624.972" y="247.075" fill="#727171" rx="4"/>
  <rect width="17.995" height="22.108" x="624.972" y="277.923" fill="#F3B630" rx="4"/>
  <rect width="17.995" height="22.108" x="648.622" y="247.075" fill="#F3B630" rx="4"/>
  <rect width="17.995" height="22.108" x="648.622" y="277.923" fill="#92C5DB" rx="4"/>
  <rect width="17.995" height="22.108" x="672.272" y="247.075" fill="#D45134" rx="4"/>
  <rect width="17.995" height="22.108" x="672.272" y="277.923" fill="#fff" rx="4"/>
  <rect width="17.995" height="22.108" x="695.923" y="247.075" fill="#92C5DB" rx="4"/>
  <rect width="17.995" height="22.108" x="695.923" y="277.923" fill="#F3B630" rx="4"/>
  <rect width="8.74" height="1.542" x="582.298" y="270.725" fill="#fff" rx=".771"/>
  <rect width="8.74" height="1.542" x="582.298" y="301.573" fill="#fff" rx=".771"/>
  <rect width="8.74" height="1.542" x="605.948" y="270.725" fill="#fff" rx=".771"/>
  <rect width="8.74" height="1.542" x="605.948" y="301.573" fill="#fff" rx=".771"/>
  <rect width="8.74" height="1.542" x="629.599" y="270.725" fill="#fff" rx=".771"/>
  <rect width="8.74" height="1.542" x="629.599" y="301.573" fill="#fff" rx=".771"/>
  <rect width="8.74" height="1.542" x="653.249" y="270.725" fill="#fff" rx=".771"/>
  <rect width="8.74" height="1.542" x="653.249" y="301.573" fill="#fff" rx=".771"/>
  <rect width="8.74" height="1.542" x="676.899" y="270.725" fill="#fff" rx=".771"/>
  <rect width="8.74" height="1.542" x="676.899" y="301.573" fill="#fff" rx=".771"/>
  <rect width="8.74" height="1.542" x="700.55" y="270.725" fill="#fff" rx=".771"/>
  <rect width="8.74" height="1.542" x="700.55" y="301.573" fill="#fff" rx=".771"/>
  <path fill="#E8E8E8" d="M586.925 235.249a3.085 3.085 0 013.085-3.084h59.126a3.084 3.084 0 010 6.169H590.01a3.085 3.085 0 01-3.085-3.085z"/>
  <path fill="#B28B67" d="M611.04 494.215l16.013-6.343 5.112 12.907-16.969 6.721-4.156-13.285z"/>
  <path fill="url(#paint4_linear)" fill-rule="evenodd" d="M475.357 365.326a6.17 6.17 0 016.17-6.169H819.83a6.17 6.17 0 110 12.339h-11.825V518.54h-7.198V371.496H501.578V518.54h-7.198V371.496h-12.853a6.17 6.17 0 01-6.17-6.17z" clip-rule="evenodd"/>
  <path fill="url(#paint5_linear)" d="M604.626 426.675a38.004 38.004 0 00-25.358-21.588l-130.646-33.591c4.476 35.383 34.906 61.701 70.565 61.029l87.276-1.646-1.837-4.204z"/>
  <path fill="#F2F7FF" d="M577.414 430.879h29.049l22.622 59.897-19.023 3.856-32.648-63.753z"/>
  <path fill="#7C94D0" d="M626.624 515.946a8.437 8.437 0 00-7.295-7.071 39.673 39.673 0 01-10.78-2.925l-16.149-6.948a21.734 21.734 0 01-23.574 1.327l-.25-.142-2.216 18.353h60.668l-.404-2.594z"/>
  <path fill="#829FE9" d="M667.755 515.946a8.437 8.437 0 00-7.295-7.071 39.663 39.663 0 01-10.78-2.925l-16.149-6.948a21.734 21.734 0 01-23.574 1.327l-.25-.142-2.216 18.353h60.668l-.404-2.594z"/>
  <rect width="263.239" height="4.627" x="226" y="249.646" fill="#fff" rx="2"/>
  <rect width="263.239" height="4.627" x="226" y="299.002" fill="#fff" rx="2"/>
  <rect width="10.797" height="42.159" x="346.403" y="208" fill="url(#paint6_linear)" rx="3" transform="rotate(29.344 346.403 208)"/>
  <rect width="5.656" height="65.81" x="348.879" y="293.347" fill="url(#paint7_linear)" rx="2.828" transform="rotate(90 348.879 293.347)"/>
  <rect width="48.329" height="13.882" x="349.907" y="235.764" fill="url(#paint8_linear)" rx="3"/>
  <rect width="6.17" height="39.075" x="355.846" y="213.409" fill="url(#paint9_linear)" rx="3" transform="rotate(29.344 355.846 213.409)"/>
  <path fill="url(#paint10_linear)" d="M563.789 483.681c0 43.373-24.866 34.007-67.892 34.007-43.025 0-68.869 9.366-68.869-34.007 0-43.374 25.844-63.856 68.869-63.856 43.026 0 67.892 20.482 67.892 63.856z"/>
  <g>
    <path fill="#B28B67" fill-rule="evenodd" d="M482.189 263.966c-5.851-6.558-9.812-14.596-9.15-23.602 1.907-25.95 39.737-20.242 47.096-7.144 7.358 13.097 6.484 46.32-3.027 48.66-3.792.934-11.872-1.353-20.095-6.086l5.161 34.869h-30.477l10.492-46.697z" clip-rule="evenodd"/>
    <path fill="#000" fill-rule="evenodd" d="M479.847 269.808c-3.825-16.25-14.723-27.327-13.058-34.59 1.109-4.842 4.066-7.853 8.871-9.034 2.485-9.599 10.5-13.682 24.045-12.249 20.316 2.15 32.716 10.207 27.361 27.935-4.922 0-10.865-1.7-19.082 1.213-2.607.924-4.472 3.79-5.594 8.597h-3.714c-3.604-5.705-7.157-7.801-10.66-6.289-3.504 1.512-4.3 5.185-2.389 11.019l-1.83 13.398h-3.95z" clip-rule="evenodd"/>
  </g>
  <path fill="url(#paint11_linear)" d="M505.948 297.384a19.073 19.073 0 00-19.97-7.853l-3.36.762a24.134 24.134 0 00-17.653 16.187l-12.834 40.143a44.97 44.97 0 00-1.909 9.176l-4.697 46.441a5.743 5.743 0 004.35 6.156 68.5 68.5 0 0058.122-12.312l16.203-12.506-6.577-37.309a26.502 26.502 0 01-.402-4.594v-7.756a64.847 64.847 0 00-11.273-36.535z"/>
  <path fill="#878484" d="M651.193 357.379c0 2.514-6.765 1.626-15.416 1.626s-14.919.888-14.919-1.626c0-2.513 6.268-7.477 14.919-7.477s15.416 4.964 15.416 7.477z"/>
  <path fill="#B28B67" d="M593.311 341.678l24.491 1.051 19.044.818a11.872 11.872 0 018.821 4.519c1.537 1.952.48 4.839-1.954 5.337l-8.472 1.735a47.228 47.228 0 01-20.063-.242l-1.32-.303a36.01 36.01 0 00-5.078-.792l-19.125-1.594 3.656-10.529z"/>
  <path fill="#D22904" d="M608.001 345.369a7.97 7.97 0 00-6.537-6.403l-14.129-2.335a269.985 269.985 0 01-75.378-24.219L485.8 299.517l-5.815 47.34 67.866 6.644 52.116 1.298c5.067.126 8.963-4.447 8.034-9.43z"/>
  <g clip-path="url(#clip0)">
    <path fill="url(#paint12_linear)" fill-rule="evenodd" d="M316.795 271.42c7.651 18.176 20.656 30.806 27.545 49.706 4.084 11.208 5.787 23.395 5.89 35.876.056 6.78-.062 13.563-.093 20.343-.031 6.611-.211 13.18-.772 19.749-.564 6.604-1.196 13.129-1.474 19.773-.217 5.178-.316 11.2-2.071 15.922-1.396 3.756-4.944 4.306-5.885-.249-.523-2.532-.457-5.359-.399-7.961.074-3.339.268-6.673.367-10.011.398-13.395-.118-26.793.152-40.194.263-13.093 1.946-26.171.084-39.177-1.538-10.74-5.445-19.962-9.936-28.803-4.32-8.507-9.022-16.806-11.941-26.482-.838-2.779-1.486-5.659-1.797-8.647.136-.063.246-.011.33.155z" clip-rule="evenodd"/>
    <path fill="url(#paint13_linear)" fill-rule="evenodd" d="M314.709 307.28c1.515 1.094 2.362 2.694 3.386 4.272 1.273 1.963 2.77 3.735 4.044 5.699 2.654 4.095 4.986 8.442 7.406 12.703 4.594 8.087 8.082 16.707 9.81 26.063 1.791 9.697 2.274 19.705 3.025 29.546.796 10.431 1.599 20.937 1.704 31.408.047 4.691.301 9.671-.262 14.329-.351 2.9-1.66 5.371-4.611 5.348-6.268-.05-9.21-6.991-10.44-12.684-1.809-8.383-2.171-17.287-1.884-25.859.346-10.337 2.14-20.518 2.917-30.815.822-10.9.358-21.608-3.39-31.872-1.894-5.186-4.092-10.249-6.065-15.401-.841-2.193-1.529-4.447-2.664-6.489-1.263-2.273-2.83-4.335-3.819-6.782l.843.534z" clip-rule="evenodd"/>
    <path fill="url(#paint14_linear)" fill-rule="evenodd" d="M386.914 285.544l.576-.448c-.553 2.332-1.553 4.226-2.317 6.357-.687 1.917-1.036 4.085-1.498 6.18-1.087 4.92-2.343 9.728-3.369 14.69-2.032 9.818-1.647 20.395-.315 31.288 1.258 10.289 3.249 20.563 4.197 30.85.786 8.532 1.124 17.329.374 25.469-.509 5.528-2.18 12.129-6.731 11.571-2.143-.263-3.26-2.841-3.711-5.752-.723-4.675-.874-9.591-1.156-14.24-.629-10.376-.755-20.72-.879-30.99-.118-9.689-.442-19.571.206-29.016.625-9.114 2.578-17.327 5.371-24.904 1.471-3.993 2.873-8.078 4.526-11.883.792-1.825 1.761-3.438 2.554-5.262.637-1.467 1.144-2.972 2.172-3.91z" clip-rule="evenodd"/>
    <path fill="url(#paint15_linear)" fill-rule="evenodd" d="M316.646 337.318c.829-1.392 2.653 3.197 2.931 3.774l-.355-.861c1.646 2.736 3.151 5.583 4.086 8.719.926 3.105 1.722 6.272 2.591 9.399 1.63 5.866 3.733 11.566 5.21 17.485 1.439 5.768 1.802 11.439 1.454 17.405-.362 6.201-.584 12.497-.161 18.695.201 2.959 1.163 5.717 1.823 8.566.66 2.853 1.18 5.743 1.96 8.56.179-.367.202.86.202.953a5.935 5.935 0 01-.33 1.962c-.582 1.716-1.671 3.174-3.327 3.647-2.994.855-5.774-1.868-6.739-4.743-1.385-4.125-2.149-8.684-2.809-13.02-.605-3.976-.748-7.976-.568-12.007.354-7.949 1.793-15.794 2.182-23.741.423-8.651-1.291-16.78-2.726-25.202-.692-4.057-1.353-8.077-2.698-11.943-.545-1.565-1.255-2.947-2-4.393-.424-.822-1.28-2.289-.726-3.255z" clip-rule="evenodd"/>
    <path fill="url(#paint16_linear)" fill-rule="evenodd" d="M340.936 323.804c-.344 9.911-.936 19.747-2.258 29.554-1.348 10.008-2.898 19.982-4.195 29.998-1.264 9.751-2.588 19.663-2.411 29.55.13 7.282-1.078 19.601 7.011 23.195 8.193 3.64 9.95-11.903 10.488-17.034 1.031-9.843.697-19.79.197-29.687-.514-10.158-1.371-20.264-2.434-30.384-1.18-11.242-2.106-22.534-2.849-33.808-.368-5.576-.459-11.143-.357-16.72.096-5.264-.104-10.581-1.976-15.578l-.293.213" clip-rule="evenodd"/>
    <path fill="#70973E" fill-rule="evenodd" d="M383.231 355.204c-1.473 2.146-2.958 4.271-4.35 6.544-2.489 4.067-4.741 8.59-5.418 14.406-1.417 12.171-.28 25.315-.006 37.858.056 2.564-.268 5.05.742 7.489.917 2.212 2.629 3.898 4.262 3.889 3.495-.02 2.962-8.578 2.968-12.345.01-6.602-.73-13.27-.666-19.866.063-6.534.461-13.087 1.408-19.293.96-6.282 2.365-12.313 4.219-17.942.257-.782 2.103-6.818.359-5.777" clip-rule="evenodd"/>
    <path fill="url(#paint17_linear)" fill-rule="evenodd" d="M367.796 290.292c-2.298 0-2.284 11.453-2.353 12.925-.25 5.309-.191 10.619-.349 15.93-.346 11.588-.77 23.278-2.511 34.733-.938 6.166-2.024 12.305-3.193 18.425-1.173 6.137-2.746 12.267-3.518 18.482-.74 5.974-.322 12.067-.22 18.071.102 6.04.284 12.092 1.076 18.08.195 1.478.424 2.95.669 4.419.204 1.225.085 2.743.43 3.906.554 1.863 2.927 2.473 4.526 2.182 4.324-.79 7.086-6.219 8.563-10.185 1.887-5.065 2.888-10.559 3.876-15.896 1.119-6.047 1.775-12.187 2.082-18.343.626-12.512-.177-25.038-1.073-37.51-.499-6.936-1.075-13.842-1.956-20.735-.878-6.864-2.004-13.697-2.737-20.581-.533-5.003-1.058-10.013-1.403-15.034-.082-1.198-.152-8.869-1.909-8.869z" clip-rule="evenodd"/>
    <path fill="url(#paint18_linear)" fill-rule="evenodd" d="M364.918 373.549c-.374-12.025-5.209-64.847-6.309-79.389-.275-3.64-2.924-18.794-3.267-22.921-.932 1.167-.852 19.321-.842 23.492.011 4.126-.501 8.184-.764 12.288-.268 4.188-6.46 58.27-7.264 62.294-1.598 8.005-2.668 16.22-3.494 24.404-.803 7.978-2.053 16.394-.977 24.414.247 1.846.638 3.663 1.275 5.359.688 1.832 1.16 3.527 1.713 5.444.889 3.089 2.497 5.8 4.968 7.075 5.067 2.614 7.787-3.304 9.166-8.457 2.203-8.229 3.616-16.592 4.279-25.234.734-9.561 1.816-19.142 1.516-28.769z" clip-rule="evenodd"/>
    <g>
      <path fill="url(#paint19_linear)" d="M388.357 408.936h-75.356c-.957 0-1.732.775-1.732 1.732v75.343c0 .956.775 1.732 1.732 1.732h75.356c.957 0 1.732-.776 1.732-1.732v-75.343c0-.957-.775-1.732-1.732-1.732z"/>
      <path fill="url(#paint20_linear)" d="M309.536 417.596h-5.197c-.957 0-1.733.775-1.733 1.732v94.395c0 .957.776 1.732 1.733 1.732h5.197c.956 0 1.732-.775 1.732-1.732v-94.395c0-.957-.776-1.732-1.732-1.732z"/>
      <path fill="url(#paint21_linear)" d="M352.844 417.596h-5.197c-.956 0-1.732.775-1.732 1.732v94.395c0 .957.776 1.732 1.732 1.732h5.197c.957 0 1.733-.775 1.733-1.732v-94.395c0-.957-.776-1.732-1.733-1.732z"/>
      <path fill="url(#paint22_linear)" d="M397.018 417.596h-5.197c-.957 0-1.732.775-1.732 1.732v94.395c0 .957.775 1.732 1.732 1.732h5.197c.957 0 1.732-.775 1.732-1.732v-94.395c0-.957-.775-1.732-1.732-1.732z"/>
    </g>
  </g>
  <path fill="#fff" d="M689.137 236.899c0 1.401-.682 2.101-2.046 2.101h-1.804c-.579 0-.869-.293-.869-.88v-.033c.015-.609.308-.913.88-.913h1.892c.125 0 .216-.033.275-.099a.362.362 0 00.088-.231.321.321 0 00-.088-.22c-.059-.073-.15-.11-.275-.11h-.935c-1.291 0-1.936-.664-1.936-1.991 0-1.401.689-2.101 2.068-2.101h1.452c.579 0 .869.293.869.88v.033c-.015.609-.308.913-.88.913h-1.562c-.125 0-.216.037-.275.11a.321.321 0 00-.088.22c0 .081.029.158.088.231.059.066.15.099.275.099h.935c1.291 0 1.936.664 1.936 1.991zm3.841 1.188c0 .293-.092.517-.275.671a.936.936 0 01-.638.231.962.962 0 01-.638-.231c-.176-.154-.264-.378-.264-.671v-3.839h-.638c-.286 0-.51-.088-.671-.264a.947.947 0 01-.242-.649c0-.249.08-.462.242-.638.161-.183.385-.275.671-.275h3.069c.286 0 .509.092.671.275a.913.913 0 01.242.638.952.952 0 01-.242.649c-.162.176-.385.264-.671.264h-.616v3.839zm2.084-4.752c0-.117.026-.231.077-.341.059-.11.132-.205.22-.286.096-.088.198-.158.308-.209a.857.857 0 01.341-.077h.88c.572 0 1.071.095 1.496.286.426.191.778.444 1.056.759.286.315.499.671.638 1.067a3.511 3.511 0 01.011 2.42 2.85 2.85 0 01-.616 1.034 3.127 3.127 0 01-1.023.737c-.403.183-.876.275-1.419.275h-1.023c-.286 0-.517-.081-.693-.242-.168-.169-.253-.392-.253-.671v-4.752zm1.98 3.839c.242 0 .451-.044.627-.132.184-.088.338-.202.462-.341.125-.139.217-.297.275-.473.066-.183.099-.37.099-.561 0-.176-.029-.348-.088-.517a1.135 1.135 0 00-.275-.44 1.264 1.264 0 00-.462-.319 1.593 1.593 0 00-.649-.121h-.154v2.904h.165zm5.69.913c0 .293-.092.517-.275.671a.936.936 0 01-.638.231.962.962 0 01-.638-.231c-.176-.154-.264-.378-.264-.671v-4.752c0-.293.088-.517.264-.671a.962.962 0 01.638-.231h.044c.323 0 .554.136.693.407l1.65 2.497v-2.002c0-.293.088-.517.264-.671a.962.962 0 01.638-.231c.249 0 .462.077.638.231.183.154.275.378.275.671v4.752c0 .293-.092.517-.275.671a.936.936 0 01-.638.231.952.952 0 01-.55-.154.846.846 0 01-.143-.132 2.789 2.789 0 01-.088-.11l-1.595-2.376v1.87zm7.218 0c0 .293-.091.517-.275.671a.934.934 0 01-.638.231.964.964 0 01-.638-.231c-.176-.154-.264-.378-.264-.671v-3.839h-.638c-.286 0-.509-.088-.671-.264a.952.952 0 01-.242-.649c0-.249.081-.462.242-.638.162-.183.385-.275.671-.275h3.069c.286 0 .51.092.671.275a.908.908 0 01.242.638c0 .249-.08.466-.242.649-.161.176-.385.264-.671.264h-.616v3.839z"/>
  <defs>
    <linearGradient id="paint0_linear" x1="836.889" x2="192.61" y1="439.337" y2="170.136" gradientUnits="userSpaceOnUse">
      <stop offset=".115" stop-color="#235BBC"/>
      <stop offset="1" stop-color="#6F8CBE"/>
    </linearGradient>
    <linearGradient id="paint1_linear" x1="240.187" x2="130.187" y1="437.5" y2="402.5" gradientUnits="userSpaceOnUse">
      <stop stop-color="#245CBC"/>
      <stop offset=".578" stop-color="#6F8CBE"/>
    </linearGradient>
    <linearGradient id="paint2_linear" x1="565" x2="570.472" y1="421" y2="497.203" gradientUnits="userSpaceOnUse">
      <stop stop-color="#B6B9BD"/>
      <stop offset=".481" stop-color="#F2F7FF"/>
    </linearGradient>
    <linearGradient id="paint3_linear" x1="646.051" x2="646" y1="311.856" y2="340.5" gradientUnits="userSpaceOnUse">
      <stop/>
      <stop offset="1" stop-color="#fff"/>
    </linearGradient>
    <linearGradient id="paint4_linear" x1="650.679" x2="650.679" y1="359.157" y2="518.54" gradientUnits="userSpaceOnUse">
      <stop stop-color="#A06833"/>
      <stop offset="1" stop-color="#4A3017"/>
    </linearGradient>
    <linearGradient id="paint5_linear" x1="518.5" x2="490.5" y1="412" y2="396.5" gradientUnits="userSpaceOnUse">
      <stop stop-color="#F2F7FF"/>
      <stop offset="1" stop-color="#BDBDBD"/>
    </linearGradient>
    <linearGradient id="paint6_linear" x1="346.401" x2="357.186" y1="229.224" y2="230.044" gradientUnits="userSpaceOnUse">
      <stop stop-color="#ECB12E"/>
      <stop offset="1" stop-color="#BB891A"/>
    </linearGradient>
    <linearGradient id="paint7_linear" x1="347.032" x2="354.532" y1="326.227" y2="326.227" gradientUnits="userSpaceOnUse">
      <stop offset=".305" stop-color="#CF4E32"/>
      <stop offset="1" stop-color="#8B2E1A"/>
    </linearGradient>
    <linearGradient id="paint8_linear" x1="374.072" x2="374.072" y1="235.764" y2="249.645" gradientUnits="userSpaceOnUse">
      <stop stop-color="#94C6DC"/>
      <stop offset="1" stop-color="#71A5BC"/>
    </linearGradient>
    <linearGradient id="paint9_linear" x1="355.884" x2="361.276" y1="233.568" y2="233.978" gradientUnits="userSpaceOnUse">
      <stop stop-color="#D24F33"/>
      <stop offset="1" stop-color="#BC2808"/>
    </linearGradient>
    <linearGradient id="paint10_linear" x1="495" x2="449" y1="442.5" y2="510.5" gradientUnits="userSpaceOnUse">
      <stop stop-color="#FDBE34"/>
      <stop offset="1" stop-color="#BB8000"/>
    </linearGradient>
    <linearGradient id="paint11_linear" x1="460" x2="539.5" y1="323.5" y2="359.5" gradientUnits="userSpaceOnUse">
      <stop offset=".46" stop-color="#D12903"/>
      <stop offset="1" stop-color="#871800"/>
    </linearGradient>
    <linearGradient id="paint12_linear" x1="333.355" x2="333.355" y1="271.239" y2="435.782" gradientUnits="userSpaceOnUse">
      <stop stop-color="#699433"/>
      <stop offset="1" stop-color="#2C470A"/>
    </linearGradient>
    <linearGradient id="paint13_linear" x1="329.024" x2="329.024" y1="306.746" y2="436.648" gradientUnits="userSpaceOnUse">
      <stop stop-color="#70973E"/>
      <stop offset="1" stop-color="#2D440F"/>
    </linearGradient>
    <linearGradient id="paint14_linear" x1="379.695" x2="379.695" y1="285.096" y2="411.534" gradientUnits="userSpaceOnUse">
      <stop offset=".258" stop-color="#70973E"/>
      <stop offset=".71" stop-color="#355F00"/>
    </linearGradient>
    <linearGradient id="paint15_linear" x1="326.426" x2="326.426" y1="337.056" y2="435.782" gradientUnits="userSpaceOnUse">
      <stop offset=".241" stop-color="#70973E"/>
      <stop offset=".773" stop-color="#355E01"/>
    </linearGradient>
    <linearGradient id="paint16_linear" x1="341.15" x2="341.15" y1="292.89" y2="436.648" gradientUnits="userSpaceOnUse">
      <stop stop-color="#8CCC3C"/>
      <stop offset="1" stop-color="#49691F"/>
    </linearGradient>
    <linearGradient id="paint17_linear" x1="366.269" x2="366.269" y1="290.292" y2="437.514" gradientUnits="userSpaceOnUse">
      <stop stop-color="#77A63C"/>
      <stop offset="1" stop-color="#528215"/>
    </linearGradient>
    <linearGradient id="paint18_linear" x1="353.276" x2="353.276" y1="271.239" y2="436.648" gradientUnits="userSpaceOnUse">
      <stop stop-color="#6EB811"/>
      <stop offset="1" stop-color="#2E480C"/>
    </linearGradient>
    <linearGradient id="paint19_linear" x1="316" x2="382" y1="415.5" y2="484" gradientUnits="userSpaceOnUse">
      <stop offset=".325" stop-color="#fff"/>
      <stop offset="1" stop-color="#BDBDBD"/>
    </linearGradient>
    <linearGradient id="paint20_linear" x1="306.937" x2="306.937" y1="417.596" y2="515.455" gradientUnits="userSpaceOnUse">
      <stop stop-color="#D9A371"/>
      <stop offset=".911" stop-color="#9C7551"/>
    </linearGradient>
    <linearGradient id="paint21_linear" x1="350.246" x2="350.246" y1="417.596" y2="515.455" gradientUnits="userSpaceOnUse">
      <stop stop-color="#D9A371"/>
      <stop offset="1" stop-color="#9C7551"/>
    </linearGradient>
    <linearGradient id="paint22_linear" x1="394.42" x2="394.42" y1="417.596" y2="515.455" gradientUnits="userSpaceOnUse">
      <stop stop-color="#D9A371"/>
      <stop offset="1" stop-color="#9C7551"/>
    </linearGradient>
    <clipPath id="clip0">
      <path fill="#fff" d="M0 0h96.144v244.216H0z" transform="translate(302.606 271.239)"/>
    </clipPath>
  </defs>
</svg>
