<svg xmlns="http://www.w3.org/2000/svg" width="749" height="695" fill="none" viewBox="0 0 749 695">
  <path fill="url(#paint0_linear)" d="M217.946 124.507c11.84-43.302 54.813-70.372 98.982-62.353l4.348.79a79.181 79.181 0 0161.158 53.426c14.322 44.05 63.229 66.456 105.941 48.534l78.844-33.083a114.845 114.845 0 0157.822-8.162l24.208 2.842c36.941 4.336 66.454 32.777 72.154 69.531a82.783 82.783 0 01-32.079 78.871l-7.26 5.454a97.924 97.924 0 00-39.105 78.291v12.234c0 69.553-68.439 118.451-134.238 95.91l-10.403-3.564a77.546 77.546 0 01-46.993-44.872l-6.422-16.258c-11.988-30.35-46.101-45.478-76.643-33.989l-97.728 36.762c-53.456 20.108-90.985-53.315-43.376-84.864 21.784-14.436 28-43.656 13.978-65.709l-20.43-32.132a86.76 86.76 0 01-10.475-69.435l7.717-28.224z"/>
  <path fill="#B28B67" fill-rule="evenodd" d="M557.571 159.981c4.472-5.921 7.356-12.881 6.463-20.211-2.575-21.117-32.946-12.946-38.378-1.521-5.431 11.425-3.402 38.604 4.383 39.649 3.105.416 9.549-2.205 16.013-6.846l-2.789 29.087 24.652-2.809-10.344-37.349z" clip-rule="evenodd"/>
  <path fill="#000" fill-rule="evenodd" d="M538.306 136.661c3.38 1.538 5.887 4.753 8.923 8.993a6.25 6.25 0 012.198-.608c3.35-.292 6.194 2.162 6.354 5.481.081 1.685-.546 3.269-1.621 4.459a86.32 86.32 0 005.073 5.712c6.534-4.584 10.977-16.674 4.015-27.364-6.607-22.053-37.245-5.336-43.45-8.612-.925 8.293 3.639 14.516 18.508 11.939z" clip-rule="evenodd"/>
  <path fill="#997659" fill-rule="evenodd" d="M371.142 227.29l28.682 1.029c6.477-2.252 12.198-3.532 17.162-3.842 1.312.197 3.227 1.078-.675 3.249-3.902 2.172-7.937 4.625-7.828 6.184.109 1.559 3.136 1.54 2.935 3.871-.134 1.553-4.855.947-14.162-1.819l-25.132 5.341-.982-14.013zM502.474 220.237l-27.213 1.068c-6.145-2.337-11.573-3.666-16.283-3.986-1.244.204-3.062 1.118.641 3.371 3.702 2.254 7.53 4.8 7.427 6.418-.104 1.618-2.976 1.598-2.785 4.016.128 1.613 4.606.984 13.436-1.887l23.846 5.543.931-14.543z" clip-rule="evenodd"/>
  <path fill="#997659" d="M280.366 415.515l-13.654-1.865-1.615 11.394 14.469 1.976.8-11.505zM588.601 415.574l12.955-1.935 1.532 11.825-13.728 2.05-.759-11.94z"/>
  <path fill="#B28B67" d="M339.922 427.735h-14.876v11.503h15.765l-.889-11.503zM543.132 429.439h14.072v11.93h-14.912l.84-11.93z"/>
  <path fill="#F5F3BA" d="M302.57 444.362a6.735 6.735 0 00-4.054-7.083 31.83 31.83 0 01-7.235-4.276l-10.734-8.438c-6.33 1.966-13.204.332-17.905-4.256l-.22-.214-5.545 12.154 45.517 13.46.176-1.347z"/>
  <path fill="#B5B5B5" d="M567.474 445.009c-.337-2.822 1.205-5.593 3.78-6.789a30.666 30.666 0 007.067-4.561l10.108-8.692c5.939 2.017 12.598.269 17.041-4.474l.155-.165 5.262 12.614-43.186 13.968-.227-1.901z"/>
  <path fill="#D69E22" d="M391.085 226.636l-22.29-4.14a63.028 63.028 0 01-41.732-28.24L306.3 211.085a152.281 152.281 0 0074.205 28.119l6.47.64 2.074-4.3a20.504 20.504 0 002.036-8.908z"/>
  <path fill="#51B737" d="M483.495 219.751l19.547-3.965a61.928 61.928 0 0041.257-29.625l19.721 17.458a140.008 140.008 0 01-71.705 29.303l-4.917.531-1.939-4.392a23.05 23.05 0 01-1.964-9.31z"/>
  <path fill="url(#paint1_linear)" d="M313.039 328.251l-31.258-35.363-17.148 125.743h16.707l31.699-90.38z"/>
  <path fill="url(#paint2_linear)" d="M558.482 325.234l30.463-38.026 18.959 126.015-31.315 8.401-18.107-96.39z"/>
  <path fill="#F2F7FF" d="M332.047 356.583c5.204 0 9.324-4.401 8.981-9.594l-6.101-92.233h-51.925l-1.738 15.157-1.372 7.636a57.387 57.387 0 007.455 39.968l2.85 3.637a90.008 90.008 0 0116.386 33.327l.535 2.102h24.929z"/>
  <path fill="#928787" d="M539.922 354.453c-5.184 0-9.297-4.368-8.984-9.543l5.809-96.119h49.227l1.648 15.727 3.154 19.219a45.55 45.55 0 01-1.619 21.422l-7.03 13.926-7.125 15.471a67.183 67.183 0 00-5.656 19.897h-29.424z"/>
  <path fill="#F2F7FF" d="M341 348l-34.7 4.749 18.331 77.968h16.605L341 348z"/>
  <path fill="#928787" d="M531 345.5l38.559 5.119v80.524h-40.902L531 345.5z"/>
  <path fill="#F5F3BA" d="M369.128 445.127a6.796 6.796 0 00-5.926-5.619 31.937 31.937 0 01-8.15-2.047l-12.689-5.04a17.863 17.863 0 01-18.301.994l-.27-.141-1.728 13.207h47.292l-.228-1.354z"/>
  <path fill="#C4C4C4" d="M515.327 447.08a6.206 6.206 0 015.364-5.207 29.19 29.19 0 007.965-2.173l11.902-5.148a15.97 15.97 0 0017.388.98l.179-.102 1.634 13.608h-44.736l.304-1.958z"/>
  <path fill="#000" fill-rule="evenodd" d="M347.961 146.029c1.253 11.803 1.341 38.132-3.08 41.935l-24.314-1.796.012-.141c-8.859-1.751-14.694-10.584-13.268-20.68l2.706-19.161c1.53-10.834 10.841-19.021 20.797-18.285l1.676.124c9.042.667 15.505 8.463 15.471 18.004z" clip-rule="evenodd"/>
  <path fill="#B28B67" fill-rule="evenodd" d="M317.109 162.187c-3.408-5.177-5.4-11.375-4.162-18.087 3.569-19.339 28.817-13.335 32.679-3.193 3.863 10.141.361 34.971-6.317 36.288-2.663.525-7.963-1.556-13.145-5.475l.462 26.338-20.744-1.394 11.227-34.477z" clip-rule="evenodd"/>
  <path fill="#000" fill-rule="evenodd" d="M322.726 159.082c-.64 10.935-2.803 23.318-5.993 26.059l-24.331-1.8c2.35-25.784 14.017-14.869 17.506-39.051.942-.81 1.839-1.614 2.709-2.3l.076-.714c5.57-9.093 11.594-13.4 18.071-12.921 9.716.719 12.071 5.875 14.079 10.254-3.007 7.161-10.74 7.683-18.13 11.739a4.082 4.082 0 00-2.746-1.34c-2.548-.189-4.939 1.911-5.34 4.69-.401 2.779 1.34 5.185 3.888 5.374.071.005.141.008.211.01z" clip-rule="evenodd"/>
  <path fill="url(#paint3_linear)" d="M325.737 184.882h-5.29a25 25 0 00-22.706 14.539l-4.461 9.682a361.974 361.974 0 00-22.993 66.058l-1.055 4.341a79.028 79.028 0 0067.078 5.838l5.066-1.868a4.183 4.183 0 002.673-4.638l-6.597-38.05a60.348 60.348 0 01-.853-12.381l.527-15.474a37.14 37.14 0 00-11.389-28.047z"/>
  <path fill="url(#paint4_linear)" d="M547.617 180.119c10.655-2.184 21.365 3.474 25.568 13.505l6.793 16.216a362.047 362.047 0 0116.983 50.791l2.848 11.218a84.905 84.905 0 01-68.103 13.678l-6.788-1.541a4.64 4.64 0 01-3.436-5.799l12.263-42.964a53.794 53.794 0 002.066-14.761v-16.04a30.916 30.916 0 0111.806-24.303z"/>
  <path fill="#B28B67" fill-rule="evenodd" d="M488.253 236.129l-11.084-4.857c-2.53-6.352-4.765-9.358-6.707-9.016-1.634-.572 2.393 7.291-.549 7.122-2.941-.168-10.917-5.211-11.878-3.676-1.422 2.271 1.156 7.868 3.502 10.442 4.385 4.81 7.557 6.124 15.022 7.188 3.903.557 8.545-1.024 13.489 1.997l-1.795-9.2z" clip-rule="evenodd"/>
  <path fill="#5CC641" d="M481.028 231.07a215.507 215.507 0 0084.267-26.024l2.559-1.417v30.097l-2.73.97a197.203 197.203 0 01-84.096 10.538 15.143 15.143 0 01-.334-13.444l.334-.72zM544.848 174.482l16.403-1.955L566 184.5l-22.004-.896.852-9.122z"/>
  <rect width="31.451" height="40.96" x="397.311" y="217.555" fill="url(#paint5_linear)" rx="4" transform="rotate(-6.636 397.311 217.555)"/>
  <path fill="#B28B67" fill-rule="evenodd" d="M386.13 242.603l11.683-4.68c2.666-6.121 5.023-9.017 7.069-8.688 1.723-.551-2.522 7.026.579 6.863 3.1-.162 11.506-5.021 12.519-3.542 1.499 2.188-1.218 7.581-3.691 10.061-4.622 4.635-7.965 5.901-15.833 6.927-4.113.537-9.006-.987-14.217 1.924l1.891-8.865z" clip-rule="evenodd"/>
  <path fill="#FDBE34" d="M393.78 237.713l-5.208-.444a219.003 219.003 0 01-79.986-22.669l-6.547-3.302v28.972l7.839 2.536a199.993 199.993 0 0078.308 9.011l5.594-.47a13.579 13.579 0 00.34-12.967l-.34-.667z"/>
  <defs>
    <linearGradient id="paint0_linear" x1="1282" x2="224.331" y1="208" y2="210.263" gradientUnits="userSpaceOnUse">
      <stop offset=".359" stop-color="#245CBC"/>
      <stop offset=".909" stop-color="#678CCD"/>
    </linearGradient>
    <linearGradient id="paint1_linear" x1="300.023" x2="293.791" y1="296.05" y2="349.274" gradientUnits="userSpaceOnUse">
      <stop stop-color="#C7C7C7"/>
      <stop offset="1" stop-color="#F2F7FF"/>
    </linearGradient>
    <linearGradient id="paint2_linear" x1="571.14" x2="595.312" y1="290.584" y2="418.074" gradientUnits="userSpaceOnUse">
      <stop stop-color="#797474"/>
      <stop offset="1" stop-color="#928787"/>
    </linearGradient>
    <linearGradient id="paint3_linear" x1="301.494" x2="338.796" y1="231.84" y2="237.326" gradientUnits="userSpaceOnUse">
      <stop offset=".005" stop-color="#FDBE34"/>
      <stop offset=".942" stop-color="#CC951D"/>
    </linearGradient>
    <linearGradient id="paint4_linear" x1="535.184" x2="559.687" y1="222.332" y2="214.286" gradientUnits="userSpaceOnUse">
      <stop stop-color="#4EB435"/>
      <stop offset="1" stop-color="#5CC641"/>
    </linearGradient>
    <linearGradient id="paint5_linear" x1="401.264" x2="423.334" y1="221.605" y2="253.668" gradientUnits="userSpaceOnUse">
      <stop stop-color="#F64"/>
      <stop offset="1" stop-color="#C12C0B"/>
    </linearGradient>
  </defs>
</svg>
