<svg xmlns="http://www.w3.org/2000/svg" width="521" height="490" fill="none" viewBox="0 0 521 490">
  <path fill="url(#paint0_linear)" d="M69.397 125.806c-24.796-43.141-5.05-98.23 41.508-115.8l1.678-.633a67.103 67.103 0 0117.024-3.99c29.111-2.907 56.749 13.378 68.311 40.252l21.007 48.829c26.13 60.737 102.97 79.83 154.495 38.388l49.867-40.109c29.99-24.121 74.832-11.02 87.114 25.453a55.333 55.333 0 01-11.214 54.567l-25.228 28.179a72.832 72.832 0 00-17.456 61.272l1.135 6.415c10.626 60.051-55.301 104.015-106.653 71.123-33.092-21.198-77.149-10.991-97.553 22.599l-21.21 34.918c-24.584 40.471-72.33 60.641-118.481 50.05l-27.79-6.377c-38.475-8.83-67.934-39.822-74.801-78.696l-.24-1.361c-6.452-36.52 8.98-73.703 39.189-95.215 39.891-28.407 52.123-82.751 27.721-125.207l-8.423-14.657z"/>
  <path fill="url(#paint1_linear)" d="M292.257 372.121c17.324-11.51 40.614-8.145 54.281 7.842l6.986 8.171 9.724 9.56c5.899 5.799 6.546 15.083 1.501 21.536l-.229.293a15.057 15.057 0 00-3.159 10.113c.87 15.704-19.706 21.959-27.912 8.486l-1.785-2.931c-4.883-8.017-15.497-10.216-23.011-4.766l-2.98 2.161c-7.598 5.51-18.101 4.687-24.881-1.951l-5.559-5.443c-13.076-12.802-11.188-34.328 3.889-44.345l13.135-8.726z"/>
  <path fill="#997659" d="M90.79 379.133l-13.047-1.924-1.543 11.755 13.826 2.038.764-11.869z"/>
  <path fill="#B28B67" d="M288.11 204.001l-14.626-1.546a21.943 21.943 0 01-5.52-1.32l-9.532-3.632c-1.583-.604-2.905 1.333-1.766 2.587l1.903 2.095c.916 1.009-.071 2.587-1.379 2.204l-1.207-.353a9.097 9.097 0 00-10.136 3.707 2.557 2.557 0 001.107 3.757l3.511 1.531a27.494 27.494 0 0017.884 1.416 20.19 20.19 0 014.652-.641l15.109-.307v-9.498z"/>
  <path fill="#A37E5B" d="M415.659 389.447l-13.75 1.472 1.111 11.368 14.571-1.56-1.932-11.28z"/>
  <path fill="url(#paint2_linear)" d="M400.121 263.437l-26.438 39.268 26.438 91.024 17.425-.845-17.425-129.447z"/>
  <path fill="#B28B67" d="M362.139 389.307l-13.698-1.852-1.491 11.328 14.516 1.963.673-11.439z"/>
  <path fill="#F2F7FF" d="M347.446 304.682v-53.513l55.956-10.153-.181 5.54a108.744 108.744 0 01-4.054 26.075 58.986 58.986 0 01-4.648 11.575l-12.433 23.437-34.64-2.961z"/>
  <path fill="#F2F7FF" d="M382.291 307.008l-34.844-2.326-1.435 86.297 17.627 1.481 18.652-85.452z"/>
  <path fill="#829FE9" d="M372.403 409.512a6.562 6.562 0 015.648-5.535 30.852 30.852 0 008.648-2.438l12.719-5.695a16.752 16.752 0 0018.677 1.068l.157-.094 1.752 15.101h-47.962l.361-2.407zM316.641 409.627a6.72 6.72 0 015.796-5.654c3.016-.384 5.96-1.2 8.742-2.425l12.957-5.704a17.22 17.22 0 0018.979 1.078l.177-.104 1.782 15.101h-48.782l.349-2.292z"/>
  <path fill="#B28B67" fill-rule="evenodd" d="M375.371 140.274c4.697-5.396 7.877-12.01 7.346-19.42-1.531-21.352-31.902-16.655-37.81-5.878-5.908 10.776-5.206 38.111 2.429 40.037 3.045.768 9.532-1.113 16.134-5.007l-4.144 28.689h24.468l-8.423-38.421z" clip-rule="evenodd"/>
  <path fill="#000" fill-rule="evenodd" d="M377.251 145.08c3.071-13.37 11.819-22.484 10.483-28.46-.89-3.984-3.265-6.462-7.122-7.433-1.995-7.898-8.43-11.258-19.304-10.078-16.311 1.769-26.266 8.398-21.967 22.984 3.952 0 8.723-1.398 15.32.998 2.094.761 3.591 3.118 4.492 7.074h2.981c2.893-4.694 5.746-6.419 8.559-5.175 2.812 1.244 3.451 4.267 1.918 9.067l1.468 11.023h3.172z" clip-rule="evenodd"/>
  <path fill="url(#paint3_linear)" d="M356.176 167.979a15.65 15.65 0 0116.572-6.576l2.384.554a19.185 19.185 0 0113.971 12.974l11.552 37.045 5.751 27.71a6.57 6.57 0 01-2.736 6.761 78.269 78.269 0 01-61.144 11.687l4.742-52.018v-8.664a53.21 53.21 0 018.908-29.473z"/>
  <path fill="#D22904" d="M274.647 207.266a6.572 6.572 0 015.363-5.307l4.053-.689a258.241 258.241 0 0073.59-24.321l14.623-7.425 4.647 38.952-54.219 5.466-41.423 1.063c-4.165.106-7.376-3.64-6.634-7.739z"/>
  <path fill="#B28B67" fill-rule="evenodd" d="M122.17 125.149c-4.433-5.873-7.272-12.798-6.338-20.124 2.693-21.11 32.979-13.216 38.338-1.855 5.358 11.361 3.176 38.519-4.606 39.63-3.103.443-9.525-2.118-15.953-6.697l2.617 29.021-24.604-2.59 10.546-37.385z" clip-rule="evenodd"/>
  <path fill="#000" fill-rule="evenodd" d="M141.444 101.793c-3.403 1.564-5.929 4.802-8.989 9.07a6.298 6.298 0 00-2.211-.593c-3.37-.267-6.235 2.211-6.4 5.536-.084 1.688.545 3.27 1.625 4.453a87.53 87.53 0 01-5.112 5.758c-6.567-4.544-11.022-16.618-4.003-27.374 6.677-22.132 37.479-5.616 43.728-8.941.919 8.297-3.681 14.562-18.638 12.091z" clip-rule="evenodd"/>
  <path fill="#997659" fill-rule="evenodd" d="M177.529 184.951l27.406 1.062c6.19-2.323 11.656-3.644 16.399-3.963 1.253.203 3.084 1.112-.645 3.352-3.729 2.24-7.584 4.771-7.48 6.379.104 1.609 2.997 1.589 2.804 3.993-.128 1.603-4.639.978-13.531-1.876l-24.015 5.51-.938-14.457z" clip-rule="evenodd"/>
  <path fill="#B28B67" d="M136.561 393.165h-13.963v11.633h14.797l-.834-11.633z"/>
  <path fill="#B5B5B5" d="M112.058 408.462a6.666 6.666 0 00-3.817-6.826 30.804 30.804 0 01-7.088-4.517l-10.19-8.65c-5.992 2.009-12.678.279-17.156-4.439l-.163-.172-5.3 12.539 43.494 13.886.22-1.821z"/>
  <path fill="#51B737" d="M196.581 184.611l-19.802-3.99a62.132 62.132 0 01-41.382-29.579l-19.844 17.447a141.205 141.205 0 0072.05 29.272l5.051.542 1.953-4.394a22.878 22.878 0 001.974-9.298z"/>
  <path fill="url(#paint4_linear)" d="M121.123 289.327l-30.68-37.801L71.35 376.795l31.538 8.352 18.236-95.82z"/>
  <path fill="#928787" d="M139.803 318.274c5.188 0 9.301-4.374 8.983-9.552l-5.85-95.15H93.309l-1.661 15.585-3.177 19.031a44.449 44.449 0 001.63 21.24l7.086 13.8 7.195 15.356a65.612 65.612 0 015.691 19.69h29.73z"/>
  <path fill="#928787" d="M148.499 308l-38.583 6.639v79.98h41.571L148.499 308z"/>
  <path fill="#C4C4C4" d="M164.624 410.544a6.4 6.4 0 00-5.564-5.32 30.068 30.068 0 01-7.862-2.033l-12.063-4.937a16.693 16.693 0 01-17.477.963l-.231-.125-1.647 12.977h45.094l-.25-1.525z"/>
  <path fill="url(#paint5_linear)" d="M132.237 145.307c-10.767-2.165-21.576 3.523-25.888 13.624l-6.494 15.212a362 362 0 00-17.53 51.458l-2.706 10.457a86.558 86.558 0 0068.459 13.576l6.928-1.543a4.744 4.744 0 003.524-5.956l-12.299-42.285a52.504 52.504 0 01-2.091-14.67v-15.654a30.59 30.59 0 00-11.903-24.219z"/>
  <path fill="#5CC641" d="M135.105 139.28l-16.955-2.053L114 149.5l21.985-.639-.88-9.581z"/>
  <rect width="30.311" height="40.701" fill="url(#paint6_linear)" rx="4" transform="matrix(.99287 -.1192 .11203 .9937 202.218 172.105)"/>
  <path fill="#B28B67" fill-rule="evenodd" d="M191.85 200.749l11.163-4.828c2.548-6.315 4.8-9.303 6.755-8.963 1.646-.568-2.409 7.248.553 7.08 2.963-.167 10.995-5.18 11.963-3.654 1.432 2.257-1.164 7.821-3.527 10.38-4.416 4.782-7.611 6.088-15.129 7.146-3.93.553-8.605-1.018-13.585 1.985l1.807-9.146z" clip-rule="evenodd"/>
  <path fill="#5CC641" d="M199.403 195.628c-29.643-2.731-58.622-11.495-84.771-25.721l-2.602-1.415v29.762l3.041 1.061c26.924 9.396 55.932 12.891 84.332 10.318a14.772 14.772 0 00.334-13.299l-.334-.706z"/>
  <defs>
    <linearGradient id="paint0_linear" x1="476.363" x2="-532.01" y1="169.397" y2="174.668" gradientUnits="userSpaceOnUse">
      <stop offset=".309" stop-color="#245CBC"/>
      <stop offset=".909" stop-color="#5881C9"/>
    </linearGradient>
    <linearGradient id="paint1_linear" x1="358.757" x2="212.463" y1="414.492" y2="400.145" gradientUnits="userSpaceOnUse">
      <stop offset=".37" stop-color="#245CBC"/>
      <stop offset="1" stop-color="#6A89BE"/>
    </linearGradient>
    <linearGradient id="paint2_linear" x1="395.614" x2="395.614" y1="263.437" y2="393.729" gradientUnits="userSpaceOnUse">
      <stop stop-color="#D0D4DA"/>
      <stop offset="1" stop-color="#F2F7FF"/>
    </linearGradient>
    <linearGradient id="paint3_linear" x1="370.615" x2="342.427" y1="196.122" y2="197.487" gradientUnits="userSpaceOnUse">
      <stop stop-color="#D22904"/>
      <stop offset="1" stop-color="#971F05"/>
    </linearGradient>
    <linearGradient id="paint4_linear" x1="108.375" x2="84.636" y1="254.882" y2="381.731" gradientUnits="userSpaceOnUse">
      <stop stop-color="#797474"/>
      <stop offset="1" stop-color="#928787"/>
    </linearGradient>
    <linearGradient id="paint5_linear" x1="144.772" x2="120.161" y1="187.069" y2="178.834" gradientUnits="userSpaceOnUse">
      <stop stop-color="#4EB435"/>
      <stop offset="1" stop-color="#5CC641"/>
    </linearGradient>
    <linearGradient id="paint6_linear" x1="3.81" x2="25.972" y1="4.024" y2="35.252" gradientUnits="userSpaceOnUse">
      <stop stop-color="#F64"/>
      <stop offset="1" stop-color="#C12C0B"/>
    </linearGradient>
  </defs>
</svg>
